<?xml version="1.0" encoding="UTF-8" standalone="no"?>
<!-- Generator: Adobe Illustrator 27.2.0, SVG Export Plug-In . SVG Version: 6.00 Build 0)  -->

<svg
   version="1.1"
   id="Lager_1"
   x="0px"
   y="0px"
   viewBox="0 0 841.89 595.28"
   style="enable-background:new 0 0 841.89 595.28;"
   xml:space="preserve"
   sodipodi:docname="main_logo_2.svg"
   xmlns:sodipodi="http://sodipodi.sourceforge.net/DTD/sodipodi-0.dtd"
   xmlns="http://www.w3.org/2000/svg"
   xmlns:svg="http://www.w3.org/2000/svg"><defs
   id="defs174" /><sodipodi:namedview
   id="namedview172"
   pagecolor="#ffffff"
   bordercolor="#666666"
   borderopacity="1.0"
   showgrid="false"
   showguides="false" />
<style
   type="text/css"
   id="style89">
	.st0{fill:#F59C1B;stroke:#FFFFFF;stroke-width:7;stroke-miterlimit:10;}
	.st1{fill:#026634;stroke:#FEF6B5;stroke-width:0.5;stroke-miterlimit:10;}
	.st2{fill:#026634;stroke:#FDF6B6;stroke-width:0.5;stroke-miterlimit:10;}
	.st3{fill:#E94E1B;stroke:#FDF6B6;stroke-width:0.5;stroke-miterlimit:10;}
	.st4{fill:#FFFFFF;}
	.st5{fill:none;stroke:#FFFFFF;stroke-width:3;stroke-miterlimit:10;}
</style>
<g
   id="g169"
   transform="matrix(2.0704164,0,0,2.0704164,-438.91894,-305.45024)">
	<g
   id="g117">
		<ellipse
   class="st0"
   cx="418.26001"
   cy="292.44"
   rx="192.67999"
   ry="110.31"
   id="ellipse91" />
		<g
   id="g115">
			<g
   id="g103">
				<path
   class="st1"
   d="m 284.9,276.76 v -24 h 7.41 l 1.83,15.96 0.23,1.96 c 1.01,0.25 2.92,0.44 3.92,0.57 1,0.13 2.02,0.19 3.06,0.19 3.07,0 5.51,-1.09 7.33,-3.26 1.82,-2.17 2.73,-5.08 2.73,-8.71 0,-1.18 -0.12,-2.31 -0.37,-3.39 -0.25,-1.08 -0.6,-2.06 -1.07,-2.94 -1.25,-2.24 -3.88,-4.62 -7.91,-7.15 -1.97,-1.18 -3.5,-2.17 -4.56,-2.98 -4.13,-3 -7.16,-6.47 -9.08,-10.42 -1.92,-3.94 -2.88,-8.68 -2.88,-14.21 0,-8.19 1.88,-14.77 5.65,-19.75 3.77,-4.98 8.81,-7.47 15.13,-7.47 2.65,0 5.42,0.44 8.3,1.33 2.89,0.89 5.81,2.17 8.77,3.86 v 21.91 h -7.41 l -1.6,-14.37 -0.21,-1.58 c -0.73,-0.38 -2.25,-0.66 -3.04,-0.86 -0.79,-0.19 -1.63,-0.28 -2.52,-0.28 -3.02,0 -5.38,1.04 -7.09,3.1 -1.72,2.07 -2.58,4.87 -2.58,8.42 0,4.86 3.29,9.52 9.86,13.99 0.75,0.51 1.33,0.91 1.72,1.2 5.87,4.01 9.76,7.84 11.68,11.49 1.91,3.65 2.86,8.37 2.86,14.15 0,8.49 -2.05,15.26 -6.16,20.33 -4.11,5.07 -9.64,7.6 -16.61,7.6 -2.34,0 -4.91,-0.38 -7.7,-1.14 -2.8,-0.76 -6.02,-1.94 -9.69,-3.55 z"
   id="path93" />
				<path
   class="st1"
   d="m 329.38,279.86 v -7.53 l 6.58,-0.51 0.05,-2.47 v -66.54 -2.42 l -6.62,0.02 v -7.53 h 26.82 v 7.53 l -5.97,0.04 0.01,2.36 v 32.61 H 352 l 17.7,-32.86 1.41,-2.11 -6.59,-0.05 v -7.53 h 19.96 v 7.53 l -5.47,0.06 -14.88,27.04 16.68,44.07 5.93,0.76 v 7.53 h -20.55 v -5.07 l -12.2,-32.42 h -3.74 v 26.97 2.47 l 5.96,0.51 v 7.53 h -26.83 z"
   id="path95" />
				<path
   class="st1"
   d="m 384.42,235.54 c 0,-13.38 2.7,-24.14 8.09,-32.29 5.39,-8.14 12.55,-12.22 21.46,-12.22 3.64,0 7.04,0.79 10.19,2.38 3.16,1.58 5.93,3.87 8.32,6.87 3.48,4.35 6.15,9.58 7.99,15.7 1.84,6.12 2.77,12.77 2.77,19.94 0,13.51 -2.79,24.58 -8.36,33.21 -5.57,8.63 -12.05,12.95 -21.58,12.95 -8.71,0 -15.7,-4.26 -20.98,-12.79 -5.27,-8.53 -7.9,-19.78 -7.9,-33.75 z m 29.47,-34.76 c -4.18,0 -7.5,3.28 -9.94,9.85 -2.44,6.56 -3.67,15.5 -3.67,26.81 0,10.6 1.28,19.16 3.84,25.71 2.56,6.54 5.84,9.81 9.84,9.81 4,0 7.23,-3.33 9.67,-10 2.44,-6.67 3.66,-15.64 3.66,-26.91 0,-10.72 -1.23,-19.28 -3.68,-25.68 -2.45,-6.39 -5.69,-9.59 -9.72,-9.59 z"
   id="path97" />
				<path
   class="st1"
   d="m 482.15,200.91 c -6.13,0 -10.93,3.17 -14.39,9.5 -3.46,6.33 -5.18,15.09 -5.18,26.27 0,10.68 1.8,19.23 5.4,25.64 3.6,6.42 8.4,9.63 14.4,9.63 h 1.29 v -26.09 l 0.01,-1.77 -7.61,-0.63 v -7.41 h 27.56 v 7.41 l -6.32,0.63 0.01,1.77 v 29.57 c -3.17,2.03 -6.41,3.53 -9.73,4.53 -3.31,0.99 -6.72,1.49 -10.23,1.49 -8.94,0 -16.15,-4.16 -21.64,-12.47 -5.48,-8.31 -8.23,-19.2 -8.23,-32.67 0,-13.55 2.79,-24.4 8.38,-32.54 5.59,-8.15 13.01,-12.22 22.26,-12.22 2.99,0 6.07,0.39 9.24,1.17 3.17,0.78 6.48,1.95 9.94,3.51 v 23.62 h -7.29 l -1.83,-15.7 -0.24,-2.09 c -2.38,-1.43 -5.8,-1.15 -5.8,-1.15 z"
   id="path99" />
				<path
   class="st1"
   d="m 508.26,276.76 v -24 h 7.41 l 1.83,15.96 0.26,1.96 c 1.01,0.25 2.89,0.44 3.89,0.57 1,0.13 2.02,0.19 3.06,0.19 3.07,0 5.51,-1.09 7.33,-3.26 1.82,-2.17 2.73,-5.08 2.73,-8.71 0,-1.18 -0.12,-2.31 -0.37,-3.39 -0.25,-1.08 -0.6,-2.06 -1.07,-2.94 -1.25,-2.24 -3.89,-4.62 -7.91,-7.15 -1.98,-1.18 -3.5,-2.17 -4.56,-2.98 -4.13,-3 -7.16,-6.47 -9.08,-10.42 -1.92,-3.94 -2.88,-8.68 -2.88,-14.21 0,-8.19 1.88,-14.77 5.65,-19.75 3.77,-4.98 8.81,-7.47 15.13,-7.47 2.65,0 5.42,0.44 8.31,1.33 2.88,0.89 5.81,2.17 8.77,3.86 v 21.91 h -7.41 l -1.6,-14.37 -0.17,-1.58 c -0.73,-0.38 -2.3,-0.66 -3.09,-0.86 -0.79,-0.19 -1.63,-0.28 -2.51,-0.28 -3.02,0 -5.38,1.04 -7.1,3.1 -1.71,2.07 -2.57,4.87 -2.57,8.42 0,4.86 3.29,9.52 9.86,13.99 0.75,0.51 1.33,0.91 1.71,1.2 5.87,4.01 9.77,7.84 11.68,11.49 1.91,3.65 2.86,8.37 2.86,14.15 0,8.49 -2.05,15.26 -6.16,20.33 -4.11,5.07 -9.64,7.6 -16.61,7.6 -2.34,0 -4.9,-0.38 -7.7,-1.14 -2.8,-0.76 -6.03,-1.94 -9.69,-3.55 z"
   id="path101" />
			</g>
			<g
   id="g109">
				<polygon
   class="st2"
   points="338.51,295.1 337.93,297.93 323.62,361.55 309.08,297.93 308.41,295.1 315.93,295.07 315.93,286.12 284.9,286.12 284.9,295.07 291.08,295.09 313.43,389.46 326.16,389.46 348,295.08 354.23,295.07 354.23,286.12 330.79,286.12 330.79,295.07 "
   id="polygon105" />
				<path
   class="st2"
   d="M 405.46,380.48 382.6,285.37 h -13.66 l -21.85,95.11 -6.03,0.03 v 8.95 h 22.88 v -8.95 l -7.64,-0.02 0.6,-2.92 4.77,-22.79 h 20.19 l 5,22.94 0.55,2.74 -7.73,0.05 v 8.95 h 29.67 1.03 30.83 v -8.95 l -7.74,-0.02 v -3.52 -32.49 h 0.93 c 3.09,0 5.53,1.14 7.32,3.42 1.79,2.28 3.27,6.18 4.45,11.69 0.34,1.6 0.79,4.04 1.34,7.29 1.27,7.67 2.66,12.84 4.17,15.49 0.82,1.44 2.68,3.04 4.56,4.4 2.4,1.73 5.28,2.67 8.23,2.67 h 13.83 21.9 v -9.66 l -7.69,0.01 v -2.83 -66.03 l 31.4,78.52 h 15.1 V 298.6 l -0.03,-4.34 7.44,-0.03 v -8.12 H 522.4 v 8.12 l 7.87,0.01 v 4.36 60.17 l -27.18,-68.52 v -4.14 h -26.77 v 8.95 l 7.56,0.02 0.04,2.83 v 77.05 c 0,1.27 -0.57,2.47 -1.54,3.27 l -0.34,0.28 c -1.23,1.02 -2.74,1.64 -4.33,1.79 l -0.5,0.05 c -3.21,0 -5.58,-0.76 -7.11,-2.29 -1.53,-1.53 -2.86,-4.6 -4.01,-9.21 -0.25,-1.1 -0.62,-2.68 -1.11,-4.74 -2.13,-9.33 -4.41,-15.77 -6.85,-19.33 -1.08,-1.6 -2.39,-2.97 -3.94,-4.1 -1.54,-1.13 -3.33,-2.02 -5.37,-2.67 5.93,-1.3 10.38,-4.16 13.36,-8.57 2.98,-4.41 4.47,-10.33 4.47,-17.75 0,-8.32 -1.91,-14.67 -5.74,-19.03 -3.83,-4.36 -9.4,-6.54 -16.72,-6.54 h -34.82 v 8.95 l 7.53,0.05 0.06,2.81 v 79.05 l -0.07,3.51 h -11.43 z m -41.52,-36 7.5,-34.07 7.64,34.07 z M 445.9,329.4 c -2.29,3.28 -5.7,4.93 -10.24,4.93 -0.28,0 -0.65,-0.02 -1.11,-0.08 -0.46,-0.05 -0.82,-0.07 -1.06,-0.07 v -37.61 h 4.35 c 3.52,0 6.31,1.63 8.38,4.89 2.07,3.26 3.1,7.7 3.1,13.31 0.01,6.47 -1.13,11.35 -3.42,14.63 z"
   id="path107" />
			</g>
			<circle
   class="st3"
   cx="366.56"
   cy="267.89999"
   r="7.21"
   id="circle111" />
			<circle
   class="st3"
   cx="386.29999"
   cy="267.89999"
   r="7.21"
   id="circle113" />
		</g>
	</g>
	<g
   id="g161">
		<g
   id="g159">
			<path
   class="st4"
   d="m 425,427.31 c 1.08,0.08 1.61,0.11 2.69,0.18 0.85,3.28 1.29,4.92 2.2,8.2 1.25,-3.16 1.86,-4.75 3.04,-7.93 1.04,0.04 1.57,0.06 2.61,0.09 -1.76,4.2 -2.68,6.29 -4.59,10.45 -0.99,-0.05 -1.49,-0.07 -2.48,-0.13 -1.46,-4.34 -2.15,-6.51 -3.47,-10.86 z"
   id="path119" />
			<path
   class="st4"
   d="m 444.1,436.38 c -1.82,0.01 -2.74,0.01 -4.57,-0.02 -0.35,0.87 -0.53,1.3 -0.89,2.17 -1.09,-0.02 -1.64,-0.03 -2.74,-0.06 1.9,-4.2 2.82,-6.3 4.56,-10.53 1.13,0.01 1.7,0.01 2.83,0.01 1.71,4.24 2.6,6.35 4.45,10.56 -1.13,0.02 -1.7,0.03 -2.83,0.04 -0.32,-0.86 -0.49,-1.3 -0.81,-2.17 z m -4.89,-11.15 c 0.84,0.01 1.26,0.02 2.1,0.02 0,0.68 -0.01,1.02 -0.01,1.71 -0.85,0 -1.27,-0.01 -2.11,-0.02 0,-0.68 0.01,-1.02 0.02,-1.71 z m 4.16,9.32 c -0.62,-1.67 -0.92,-2.5 -1.52,-4.18 -0.63,1.67 -0.95,2.5 -1.6,4.17 1.25,0.01 1.87,0.02 3.12,0.01 z m -0.94,-9.29 c 0.84,0 1.26,0 2.1,-0.01 0.01,0.68 0.01,1.02 0.01,1.71 -0.84,0.01 -1.27,0.01 -2.11,0.01 0,-0.69 0,-1.03 0,-1.71 z"
   id="path121" />
			<path
   class="st4"
   d="m 454.41,434.13 c -1.06,0.05 -1.58,0.07 -2.64,0.11 0.06,1.66 0.09,2.5 0.15,4.16 -1.02,0.04 -1.53,0.05 -2.54,0.08 -0.11,-4.24 -0.17,-6.37 -0.28,-10.61 2.34,-0.06 3.51,-0.11 5.85,-0.23 0.83,-0.03 1.48,0.03 1.94,0.17 0.46,0.14 0.86,0.37 1.19,0.67 0.28,0.25 0.5,0.54 0.67,0.85 0.17,0.32 0.27,0.68 0.3,1.1 0.03,0.5 -0.08,1.01 -0.34,1.51 -0.26,0.5 -0.72,0.88 -1.38,1.12 0.57,0.16 0.99,0.42 1.25,0.76 0.26,0.35 0.41,0.89 0.46,1.63 0.02,0.28 0.03,0.43 0.05,0.71 0.03,0.48 0.08,0.81 0.13,0.98 0.09,0.27 0.25,0.46 0.51,0.57 0.01,0.11 0.01,0.16 0.02,0.27 -1.14,0.08 -1.71,0.11 -2.85,0.18 -0.09,-0.23 -0.16,-0.42 -0.2,-0.56 -0.08,-0.29 -0.14,-0.6 -0.16,-0.91 -0.03,-0.39 -0.04,-0.59 -0.07,-0.98 -0.05,-0.68 -0.22,-1.12 -0.5,-1.33 -0.29,-0.2 -0.8,-0.29 -1.56,-0.25 z m 1.45,-2.01 c 0.49,-0.23 0.72,-0.64 0.69,-1.24 -0.04,-0.64 -0.3,-1.06 -0.8,-1.25 -0.28,-0.11 -0.69,-0.15 -1.23,-0.12 -1.17,0.06 -1.75,0.08 -2.92,0.12 0.04,1.14 0.06,1.71 0.1,2.85 1.15,-0.04 1.73,-0.07 2.88,-0.12 0.58,-0.03 1,-0.11 1.28,-0.24 z"
   id="path123" />
			<path
   class="st4"
   d="m 471.77,436.89 c -1.03,0.12 -1.54,0.18 -2.57,0.28 -2.33,-2.79 -3.47,-4.19 -5.68,-7.03 0.26,3 0.38,4.51 0.64,7.51 -0.96,0.08 -1.44,0.12 -2.41,0.19 -0.32,-4.23 -0.48,-6.35 -0.8,-10.58 1.04,-0.08 1.56,-0.12 2.6,-0.21 2.14,2.79 3.24,4.17 5.49,6.92 -0.31,-2.95 -0.47,-4.42 -0.78,-7.37 0.92,-0.1 1.38,-0.15 2.3,-0.25 0.48,4.21 0.72,6.32 1.21,10.54 z"
   id="path125" />
			<path
   class="st4"
   d="m 480.99,433.44 c -1.78,0.28 -2.68,0.41 -4.46,0.65 -0.22,0.91 -0.33,1.37 -0.55,2.28 -1.07,0.14 -1.61,0.21 -2.68,0.34 1.24,-4.43 1.82,-6.65 2.91,-11.08 1.11,-0.15 1.66,-0.23 2.76,-0.4 2.29,3.95 3.47,5.91 5.9,9.8 -1.1,0.19 -1.65,0.28 -2.76,0.45 -0.45,-0.82 -0.67,-1.23 -1.12,-2.04 z m -0.98,-1.7 c -0.85,-1.56 -1.27,-2.34 -2.1,-3.91 -0.37,1.74 -0.56,2.61 -0.95,4.35 1.22,-0.17 1.83,-0.26 3.05,-0.44 z"
   id="path127" />
			<path
   class="st4"
   d="m 495.68,432.95 c -2.07,0.44 -3.11,0.66 -5.2,1.06 -0.8,-4.17 -1.2,-6.25 -2,-10.42 2,-0.38 2.99,-0.59 4.98,-1.01 0.72,-0.14 1.33,-0.2 1.83,-0.16 0.86,0.06 1.62,0.35 2.26,0.87 0.52,0.42 0.93,0.91 1.21,1.48 0.29,0.56 0.5,1.12 0.62,1.66 0.32,1.37 0.28,2.61 -0.13,3.71 -0.55,1.47 -1.75,2.42 -3.57,2.81 z m 0.16,-8.12 c -0.49,-0.48 -1.3,-0.6 -2.4,-0.36 -0.9,0.19 -1.34,0.28 -2.24,0.47 0.55,2.72 0.82,4.07 1.37,6.79 0.92,-0.19 1.39,-0.28 2.31,-0.48 1.18,-0.25 1.89,-0.94 2.13,-2.05 0.13,-0.61 0.11,-1.29 -0.06,-2.06 -0.25,-1.06 -0.62,-1.83 -1.11,-2.31 z"
   id="path129" />
			<path
   class="st4"
   d="m 509.58,424.75 c -2.26,0.63 -3.39,0.93 -5.66,1.51 0.27,1.06 0.4,1.59 0.67,2.64 2.62,-0.67 3.92,-1.02 6.52,-1.75 0.21,0.73 0.31,1.1 0.52,1.84 -3.58,1.01 -5.38,1.49 -9.01,2.37 -1.01,-4.12 -1.51,-6.19 -2.51,-10.31 3.36,-0.82 5.03,-1.26 8.35,-2.19 0.2,0.72 0.31,1.09 0.51,1.81 -2.42,0.68 -3.63,1.01 -6.06,1.62 0.22,0.87 0.33,1.31 0.56,2.18 2.26,-0.57 3.38,-0.87 5.62,-1.5 0.19,0.72 0.29,1.07 0.49,1.78 z"
   id="path131" />
			<path
   class="st4"
   d="m 523.02,425.48 c -0.97,0.33 -1.46,0.49 -2.44,0.8 -2.84,-2.25 -4.23,-3.4 -6.96,-5.72 0.87,2.89 1.31,4.33 2.18,7.22 -0.92,0.28 -1.37,0.41 -2.29,0.68 -1.19,-4.08 -1.78,-6.11 -2.97,-10.19 0.99,-0.29 1.48,-0.44 2.47,-0.73 2.65,2.29 4,3.42 6.75,5.65 -0.91,-2.82 -1.37,-4.23 -2.28,-7.05 0.87,-0.28 1.31,-0.43 2.17,-0.72 1.35,4.02 2.02,6.03 3.37,10.06 z"
   id="path133" />
			<path
   class="st4"
   d="m 533.36,420.12 c 0.56,-0.22 0.99,-0.45 1.3,-0.69 0.58,-0.47 0.76,-0.98 0.54,-1.54 -0.13,-0.33 -0.39,-0.52 -0.79,-0.56 -0.39,-0.05 -0.97,0 -1.71,0.14 -0.51,0.09 -0.77,0.14 -1.28,0.22 -1.26,0.21 -2.16,0.26 -2.72,0.15 -0.93,-0.18 -1.57,-0.76 -1.93,-1.74 -0.33,-0.89 -0.23,-1.77 0.27,-2.62 0.5,-0.86 1.44,-1.54 2.82,-2.07 1.15,-0.44 2.24,-0.56 3.28,-0.33 1.03,0.22 1.79,0.85 2.25,1.87 -0.89,0.36 -1.33,0.54 -2.22,0.89 -0.27,-0.58 -0.73,-0.88 -1.37,-0.92 -0.42,-0.02 -0.9,0.07 -1.44,0.27 -0.59,0.23 -1.03,0.52 -1.3,0.87 -0.27,0.35 -0.34,0.72 -0.19,1.1 0.13,0.36 0.41,0.55 0.83,0.6 0.27,0.03 0.81,-0.01 1.61,-0.14 0.83,-0.13 1.25,-0.2 2.08,-0.34 0.91,-0.15 1.64,-0.17 2.19,-0.04 0.85,0.19 1.46,0.73 1.82,1.6 0.37,0.9 0.28,1.8 -0.27,2.72 -0.55,0.91 -1.56,1.66 -3.02,2.23 -1.49,0.58 -2.78,0.72 -3.86,0.45 -1.08,-0.28 -1.8,-0.94 -2.17,-1.98 0.91,-0.33 1.36,-0.5 2.26,-0.84 0.24,0.43 0.51,0.71 0.81,0.86 0.53,0.25 1.27,0.21 2.21,-0.16 z"
   id="path135" />
			<path
   class="st4"
   d="m 536.06,409.26 c 0.9,-0.38 1.35,-0.57 2.25,-0.95 1.67,3.9 2.51,5.85 4.18,9.76 -0.94,0.4 -1.4,0.6 -2.34,0.99 -1.64,-3.93 -2.46,-5.88 -4.09,-9.8 z"
   id="path137" />
			<path
   class="st4"
   d="m 548.09,413.89 c 0.54,-0.25 0.96,-0.51 1.25,-0.77 0.55,-0.5 0.69,-1.03 0.44,-1.57 -0.15,-0.32 -0.43,-0.49 -0.82,-0.51 -0.39,-0.02 -0.96,0.06 -1.7,0.25 -0.51,0.12 -0.76,0.18 -1.26,0.3 -1.24,0.29 -2.14,0.4 -2.7,0.32 -0.94,-0.12 -1.61,-0.66 -2.03,-1.61 -0.38,-0.87 -0.34,-1.75 0.1,-2.63 0.45,-0.89 1.34,-1.63 2.69,-2.25 1.12,-0.52 2.2,-0.7 3.25,-0.54 1.05,0.16 1.84,0.73 2.37,1.73 -0.86,0.42 -1.29,0.62 -2.16,1.03 -0.31,-0.56 -0.79,-0.84 -1.42,-0.84 -0.42,0 -0.9,0.12 -1.42,0.36 -0.58,0.27 -0.99,0.58 -1.24,0.95 -0.25,0.37 -0.29,0.74 -0.12,1.11 0.16,0.35 0.44,0.53 0.86,0.54 0.27,0.01 0.81,-0.07 1.6,-0.25 0.82,-0.18 1.23,-0.28 2.05,-0.47 0.9,-0.21 1.63,-0.27 2.18,-0.18 0.86,0.14 1.5,0.63 1.92,1.48 0.42,0.87 0.39,1.78 -0.1,2.73 -0.49,0.95 -1.45,1.76 -2.88,2.41 -1.45,0.67 -2.73,0.9 -3.82,0.69 -1.09,-0.21 -1.85,-0.82 -2.3,-1.83 0.88,-0.39 1.33,-0.58 2.21,-0.98 0.27,0.41 0.55,0.68 0.86,0.81 0.54,0.23 1.28,0.14 2.19,-0.28 z"
   id="path139" />
			<path
   class="st4"
   d="m 557.85,398.87 c 0.36,0.66 0.54,0.99 0.89,1.65 -1.25,0.67 -1.88,1.01 -3.13,1.66 1.61,3.1 2.42,4.65 4.03,7.75 -0.92,0.48 -1.37,0.71 -2.29,1.18 -1.58,-3.12 -2.37,-4.67 -3.95,-7.79 -1.27,0.64 -1.91,0.96 -3.19,1.59 -0.33,-0.68 -0.5,-1.01 -0.83,-1.69 3.43,-1.67 5.12,-2.54 8.47,-4.35 z"
   id="path141" />
			<path
   class="st4"
   d="m 568.29,402.7 c -1.55,0.9 -2.33,1.34 -3.9,2.21 0.13,0.93 0.19,1.39 0.31,2.32 -0.94,0.52 -1.41,0.77 -2.36,1.28 -0.46,-4.57 -0.73,-6.84 -1.33,-11.37 0.97,-0.54 1.45,-0.82 2.42,-1.37 3.56,2.85 5.37,4.26 9.04,7.01 -0.96,0.57 -1.44,0.85 -2.4,1.41 -0.72,-0.59 -1.07,-0.89 -1.78,-1.49 z m -1.53,-1.23 c -1.36,-1.15 -2.03,-1.73 -3.37,-2.89 0.29,1.76 0.43,2.63 0.7,4.4 1.07,-0.6 1.61,-0.9 2.67,-1.51 z"
   id="path143" />
			<path
   class="st4"
   d="m 580.23,396.12 c 0.5,-0.33 0.88,-0.65 1.13,-0.95 0.47,-0.58 0.54,-1.12 0.21,-1.62 -0.19,-0.29 -0.49,-0.42 -0.89,-0.39 -0.4,0.04 -0.95,0.2 -1.65,0.49 -0.48,0.2 -0.73,0.29 -1.21,0.49 -1.19,0.47 -2.07,0.71 -2.63,0.72 -0.95,0.02 -1.7,-0.42 -2.25,-1.3 -0.5,-0.81 -0.59,-1.68 -0.28,-2.62 0.31,-0.94 1.09,-1.81 2.34,-2.62 1.04,-0.68 2.08,-1.01 3.15,-1.01 1.06,0 1.93,0.45 2.6,1.36 -0.79,0.54 -1.19,0.81 -1.99,1.34 -0.39,-0.51 -0.9,-0.71 -1.53,-0.62 -0.42,0.07 -0.87,0.25 -1.35,0.57 -0.54,0.35 -0.9,0.72 -1.1,1.12 -0.2,0.4 -0.18,0.77 0.04,1.12 0.2,0.32 0.52,0.46 0.94,0.41 0.27,-0.03 0.79,-0.18 1.55,-0.48 0.79,-0.3 1.18,-0.46 1.97,-0.77 0.86,-0.34 1.58,-0.51 2.14,-0.5 0.88,0.01 1.58,0.4 2.11,1.18 0.55,0.8 0.65,1.71 0.29,2.72 -0.35,1.01 -1.19,1.96 -2.51,2.81 -1.34,0.88 -2.58,1.29 -3.69,1.25 -1.11,-0.05 -1.96,-0.54 -2.54,-1.48 0.82,-0.51 1.23,-0.77 2.05,-1.29 0.33,0.37 0.65,0.59 0.97,0.67 0.57,0.15 1.29,-0.05 2.13,-0.6 z"
   id="path145" />
			<path
   class="st4"
   d="m 595.68,387.12 c -1.06,0.8 -1.59,1.2 -2.66,1.99 -2.33,-0.59 -3.48,-0.9 -5.78,-1.54 -0.14,0.63 -0.21,0.95 -0.36,1.59 0.82,1.16 1.23,1.74 2.05,2.9 -0.83,0.59 -1.24,0.88 -2.08,1.45 -2.42,-3.49 -3.63,-5.24 -6.04,-8.73 0.8,-0.55 1.2,-0.83 1.99,-1.39 1.01,1.43 1.51,2.14 2.52,3.57 0.51,-2.5 0.74,-3.75 1.18,-6.24 1.03,-0.76 1.54,-1.14 2.56,-1.91 -0.49,2.56 -0.76,3.85 -1.33,6.42 3.16,0.81 4.75,1.19 7.95,1.89 z"
   id="path147" />
			<path
   class="st4"
   d="m 601.32,383.1 c -1.38,1.11 -2.73,1.59 -3.94,1.53 -1.57,-0.07 -2.98,-0.82 -4.14,-2.34 -1.18,-1.54 -1.52,-3.11 -1.23,-4.58 0.23,-1.16 0.97,-2.32 2.28,-3.38 1.32,-1.06 2.62,-1.52 3.8,-1.5 1.5,0.03 2.95,0.71 4.2,2.2 1.23,1.46 1.66,3 1.38,4.55 -0.2,1.2 -0.96,2.41 -2.35,3.52 z m 0.1,-3.75 c 0.05,-0.88 -0.31,-1.78 -1.07,-2.7 -0.76,-0.92 -1.57,-1.44 -2.43,-1.58 -0.86,-0.13 -1.67,0.11 -2.45,0.73 -0.77,0.62 -1.19,1.36 -1.25,2.23 -0.06,0.87 0.27,1.78 1,2.73 0.74,0.94 1.54,1.49 2.41,1.62 0.87,0.14 1.71,-0.11 2.51,-0.75 0.8,-0.63 1.23,-1.4 1.28,-2.28 z"
   id="path149" />
			<path
   class="st4"
   d="m 612.77,372.6 c -0.27,0.73 -0.77,1.43 -1.52,2.09 -1.23,1.1 -2.58,1.6 -4,1.56 -1.45,-0.04 -2.74,-0.7 -3.84,-2 -1.11,-1.31 -1.59,-2.71 -1.47,-4.19 0.13,-1.48 0.84,-2.79 2.14,-3.95 1.13,-1.01 2.25,-1.57 3.39,-1.69 1.14,-0.12 2.11,0.14 2.91,0.79 -0.73,0.68 -1.09,1.01 -1.83,1.68 -0.63,-0.41 -1.31,-0.47 -2.06,-0.19 -0.41,0.16 -0.81,0.41 -1.18,0.74 -0.72,0.64 -1.1,1.41 -1.14,2.3 -0.04,0.9 0.36,1.83 1.21,2.81 0.86,0.99 1.72,1.46 2.6,1.41 0.88,-0.05 1.65,-0.36 2.31,-0.95 0.65,-0.58 1.03,-1.21 1.15,-1.9 0.12,-0.69 -0.01,-1.33 -0.39,-1.93 -0.84,0.76 -1.26,1.14 -2.1,1.9 -0.47,-0.53 -0.71,-0.79 -1.18,-1.32 1.51,-1.35 2.26,-2.03 3.74,-3.41 1.55,1.67 2.33,2.5 3.88,4.17 -0.5,0.47 -0.76,0.7 -1.26,1.17 -0.44,-0.32 -0.65,-0.48 -1.09,-0.8 -0.02,0.72 -0.11,1.29 -0.27,1.71 z"
   id="path151" />
			<path
   class="st4"
   d="m 620.09,359.49 c -1.67,1.7 -2.51,2.54 -4.22,4.2 0.76,0.78 1.14,1.17 1.9,1.96 1.97,-1.91 2.94,-2.88 4.86,-4.84 0.55,0.53 0.82,0.8 1.37,1.33 -2.65,2.71 -3.99,4.04 -6.73,6.64 -2.93,-3.08 -4.39,-4.61 -7.32,-7.69 2.54,-2.41 3.79,-3.64 6.24,-6.16 0.54,0.53 0.81,0.79 1.34,1.31 -1.79,1.83 -2.69,2.73 -4.52,4.5 0.63,0.65 0.94,0.97 1.57,1.62 1.69,-1.64 2.53,-2.48 4.19,-4.17 0.53,0.53 0.79,0.78 1.32,1.3 z"
   id="path153" />
			<path
   class="st4"
   d="m 632.28,353.22 c -0.7,0.79 -1.05,1.18 -1.75,1.96 -3.61,-0.5 -5.41,-0.78 -8.96,-1.41 2.2,2.07 3.29,3.1 5.49,5.17 -0.67,0.71 -1,1.06 -1.68,1.77 -3.06,-2.94 -4.59,-4.41 -7.66,-7.35 0.73,-0.76 1.09,-1.14 1.81,-1.91 3.47,0.64 5.22,0.93 8.74,1.45 -2.2,-1.99 -3.3,-2.98 -5.5,-4.97 0.63,-0.7 0.94,-1.04 1.56,-1.75 3.18,2.81 4.77,4.22 7.95,7.04 z"
   id="path155" />
			<path
   class="st4"
   d="m 631.5,345.79 c 0.11,0.3 0.45,1.38 0.17,1.71 -0.28,0.33 -1.4,0.15 -1.71,0.09 -0.93,-0.17 -2.02,-0.6 -2.7,-1.2 -0.82,-0.72 -1.31,-1.92 -0.38,-3 0.93,-1.08 2.19,-0.78 3.03,-0.08 0.69,0.58 1.28,1.59 1.59,2.48 z m 3.53,4.59 c -0.7,0.81 -1.83,0.98 -2.5,0.39 -0.68,-0.59 -0.67,-1.73 0.02,-2.52 0.69,-0.8 1.81,-0.99 2.49,-0.4 0.69,0.57 0.68,1.71 -0.01,2.53 z"
   id="path157" />
		</g>
	</g>
	<path
   class="st5"
   d="m 638.17,337.96 c 6.68,-13.03 10.27,-30.92 10.27,-45.29 0,-76.62 -102.3,-138.72 -228.5,-138.72"
   id="path163" />
	<path
   class="st5"
   d="m 191.44,292.68 c 0,13.19 3.03,25.96 8.7,38.04 26.55,56.65 114.14,100.13 215.13,102.21"
   id="path165" />
	<path
   class="st5"
   d="m 191.44,292.75 c 0,-76.62 102.3,-138.72 228.5,-138.72"
   id="path167" />
</g>
</svg>
